<svg xmlns="http://www.w3.org/2000/svg" viewBox="0 0 291.67 76.38"><defs><style>.cls-1{fill:#fff;}.cls-2{fill:#002169;}.cls-3{fill:#ffcd00;}.cls-4{fill:#e1251b;}</style></defs><g id="Layer_2" data-name="Layer 2"><g id="Layer_1-2" data-name="Layer 1"><path class="cls-1" d="M69.44,37.82l0-.32L62.21,23.72a27.78,27.78,0,0,0-55,0L0,37.5l0,.32A31.61,31.61,0,0,0,10.91,58.17,34.82,34.82,0,0,0,14.61,61l-5,8.78.75.55c.34.25,8.34,6,24.37,6s24-5.8,24.37-6l.76-.55-5-8.79a35.65,35.65,0,0,0,3.69-2.82A31.62,31.62,0,0,0,69.44,37.82Zm-11,4.46A25.29,25.29,0,0,1,41.32,56l-.76-1.08A27.82,27.82,0,0,0,58.42,42.28ZM28.9,54.94,28.14,56A25.29,25.29,0,0,1,11,42.28,27.87,27.87,0,0,0,28.9,54.94Z"/><circle class="cls-2" cx="34.73" cy="27.78" r="26.72"/><circle class="cls-1" cx="34.73" cy="27.78" r="25.94"/><path class="cls-2" d="M34.72,66C16.63,66,2.48,52.48,1.08,37.72L6.65,27.13c0,17.39,11.18,30.71,28.08,30.71S62.81,44.52,62.81,27.13l5.57,10.59C67,52.48,52.84,66,34.75,66Z"/><rect class="cls-2" x="34.43" y="1.75" width="0.6" height="2.93"/><polygon class="cls-2" points="36.77 6.98 37.35 7.06 38.04 1.84 37.45 1.76 36.77 6.98"/><polygon class="cls-2" points="32.69 6.96 32.1 7.04 31.39 1.82 31.98 1.75 32.69 6.96"/><polygon class="cls-2" points="28.48 2.46 29.14 5.33 29.72 5.2 29.06 2.34 28.48 2.46"/><polygon class="cls-2" points="39.73 5.2 40.31 5.33 40.98 2.47 40.4 2.34 39.73 5.2"/><rect class="cls-2" x="17.06" y="8.94" width="0.6" height="2.93" transform="translate(-2.28 15.32) rotate(-45)"/><polygon class="cls-2" points="21.46 11.64 21.93 11.27 18.72 7.1 18.25 7.47 21.46 11.64"/><polygon class="cls-2" points="18.56 14.5 18.2 14.97 14.02 11.79 14.38 11.31 18.56 14.5"/><polygon class="cls-2" points="12.41 14.3 14.9 15.86 15.22 15.36 12.73 13.8 12.41 14.3"/><polygon class="cls-2" points="22.3 8.28 22.8 7.96 21.25 5.46 20.75 5.78 22.3 8.28"/><rect class="cls-2" x="8.7" y="27.48" width="2.93" height="0.6"/><polygon class="cls-2" points="13.93 25.75 14.01 25.16 8.79 24.48 8.71 25.07 13.93 25.75"/><polygon class="cls-2" points="13.91 29.82 13.99 30.41 8.77 31.12 8.7 30.53 13.91 29.82"/><polygon class="cls-2" points="9.41 34.03 12.28 33.38 12.15 32.8 9.29 33.45 9.41 34.03"/><polygon class="cls-2" points="12.15 22.78 12.28 22.21 9.42 21.53 9.29 22.11 12.15 22.78"/><rect class="cls-2" x="15.89" y="44.86" width="2.93" height="0.6" transform="translate(-26.84 25.5) rotate(-45)"/><polygon class="cls-2" points="18.59 41.05 18.22 40.59 14.05 43.79 14.42 44.26 18.59 41.05"/><polygon class="cls-2" points="21.45 43.95 21.92 44.31 18.73 48.5 18.27 48.14 21.45 43.95"/><polygon class="cls-2" points="21.25 50.1 22.81 47.62 22.31 47.3 20.75 49.79 21.25 50.1"/><polygon class="cls-2" points="15.23 40.21 14.91 39.72 12.41 41.26 12.73 41.76 15.23 40.21"/><rect class="cls-2" x="34.43" y="50.88" width="0.6" height="2.93"/><polygon class="cls-2" points="32.7 48.58 32.11 48.51 31.43 53.73 32.02 53.8 32.7 48.58"/><polygon class="cls-2" points="36.77 48.61 37.36 48.53 38.07 53.74 37.48 53.82 36.77 48.61"/><polygon class="cls-2" points="40.98 53.1 40.33 50.24 39.75 50.37 40.4 53.23 40.98 53.1"/><polygon class="cls-2" points="29.73 50.37 29.16 50.24 28.48 53.09 29.06 53.23 29.73 50.37"/><rect class="cls-2" x="51.81" y="43.69" width="0.6" height="2.93" transform="translate(-16.67 50.07) rotate(-45)"/><polygon class="cls-2" points="48 43.93 47.53 44.29 50.74 48.46 51.21 48.1 48 43.93"/><polygon class="cls-2" points="50.9 41.06 51.26 40.59 55.45 43.78 55.09 44.25 50.9 41.06"/><polygon class="cls-2" points="57.05 41.27 54.57 39.71 54.25 40.2 56.74 41.77 57.05 41.27"/><polygon class="cls-2" points="47.16 47.29 46.67 47.6 48.21 50.1 48.71 49.78 47.16 47.29"/><rect class="cls-2" x="57.83" y="27.48" width="2.93" height="0.6"/><polygon class="cls-2" points="55.53 29.82 55.46 30.4 60.68 31.09 60.75 30.5 55.53 29.82"/><polygon class="cls-2" points="55.56 25.74 55.48 25.15 60.69 24.45 60.77 25.03 55.56 25.74"/><polygon class="cls-2" points="60.05 21.53 57.19 22.19 57.31 22.77 60.18 22.11 60.05 21.53"/><polygon class="cls-2" points="57.31 32.78 57.19 33.36 60.04 34.03 60.17 33.45 57.31 32.78"/><rect class="cls-2" x="50.64" y="10.11" width="2.93" height="0.6" transform="translate(7.9 39.89) rotate(-45)"/><polygon class="cls-2" points="50.88 14.51 51.24 14.98 55.41 11.77 55.05 11.3 50.88 14.51"/><polygon class="cls-2" points="48.01 11.61 47.54 11.25 50.73 7.07 51.2 7.43 48.01 11.61"/><polygon class="cls-2" points="48.22 5.46 46.66 7.95 47.15 8.27 48.72 5.78 48.22 5.46"/><polygon class="cls-2" points="54.24 15.35 54.55 15.85 57.05 14.3 56.73 13.8 54.24 15.35"/><circle class="cls-3" cx="34.73" cy="27.78" r="14.81"/><path class="cls-2" d="M38.71,27.78a4,4,0,1,1-4-4,4,4,0,0,1,4,4"/><circle class="cls-3" cx="34.73" cy="27.78" r="3.26"/><path class="cls-2" d="M38.53,22.09,40.8,18.7a.4.4,0,0,0-.11-.55,11.18,11.18,0,0,0-3.36-1.38.4.4,0,0,0-.47.3l-.79,4a.39.39,0,0,0,.29.45,6.2,6.2,0,0,1,1.66.69A.37.37,0,0,0,38.53,22.09Z"/><path class="cls-2" d="M41.44,26.45l4-.8a.39.39,0,0,0,.31-.47,11.23,11.23,0,0,0-1.39-3.35.4.4,0,0,0-.55-.11L40.42,24a.39.39,0,0,0-.11.52A6.63,6.63,0,0,1,41,26.16.38.38,0,0,0,41.44,26.45Z"/><path class="cls-2" d="M40.42,31.58l3.39,2.27a.4.4,0,0,0,.55-.11,11.2,11.2,0,0,0,1.39-3.36.4.4,0,0,0-.31-.47l-4-.79a.38.38,0,0,0-.44.29,6.54,6.54,0,0,1-.69,1.66A.38.38,0,0,0,40.42,31.58Z"/><path class="cls-2" d="M36.07,34.49l.79,4a.4.4,0,0,0,.47.31,11.12,11.12,0,0,0,3.35-1.39.39.39,0,0,0,.12-.55l-2.27-3.39a.39.39,0,0,0-.52-.11,6.42,6.42,0,0,1-1.65.69A.38.38,0,0,0,36.07,34.49Z"/><path class="cls-2" d="M30.93,33.47l-2.26,3.39a.38.38,0,0,0,.11.55,11.25,11.25,0,0,0,3.35,1.39.39.39,0,0,0,.47-.31l.8-4a.38.38,0,0,0-.29-.44,6.4,6.4,0,0,1-1.66-.69A.39.39,0,0,0,30.93,33.47Z"/><path class="cls-2" d="M28,29.12l-4,.79a.4.4,0,0,0-.31.47,11.38,11.38,0,0,0,1.39,3.35.39.39,0,0,0,.55.12L29,31.58a.36.36,0,0,0,.11-.51,6.6,6.6,0,0,1-.68-1.66A.39.39,0,0,0,28,29.12Z"/><path class="cls-2" d="M29,24l-3.39-2.26a.38.38,0,0,0-.55.11,11.23,11.23,0,0,0-1.38,3.35.39.39,0,0,0,.3.47l4,.8a.39.39,0,0,0,.45-.29,6.37,6.37,0,0,1,.68-1.66A.37.37,0,0,0,29,24Z"/><path class="cls-2" d="M33.4,21.07l-.8-4a.39.39,0,0,0-.47-.3,11.09,11.09,0,0,0-3.35,1.38.39.39,0,0,0-.11.55l2.26,3.4a.39.39,0,0,0,.52.11,6.48,6.48,0,0,1,1.66-.69A.39.39,0,0,0,33.4,21.07Z"/><path class="cls-2" d="M34.74,12.48A15.3,15.3,0,1,0,50,27.78a15.3,15.3,0,0,0-15.29-15.3m0,29.71a14.41,14.41,0,1,1,14.4-14.41,14.42,14.42,0,0,1-14.4,14.41"/><polygon class="cls-4" points="44.51 4.88 34.73 9.62 24.95 4.88 34.73 28.54 44.51 4.88"/><polygon class="cls-4" points="11.83 18 16.57 27.78 11.83 37.56 35.49 27.78 11.83 18"/><polygon class="cls-4" points="24.95 50.68 34.73 45.95 44.51 50.68 34.73 27.03 24.95 50.68"/><polygon class="cls-4" points="57.63 37.56 52.9 27.78 57.63 18 33.98 27.78 57.63 37.56"/><path class="cls-3" d="M14.94,51.32l1,.92-2.25,5.23-.86-.79.5-1.11-1.57-1.44-1.09.57L9.87,54Zm-1.23,3.41,1-2.18-2.13,1.13Z"/><path class="cls-3" d="M17.55,53.73l1.56.94-1.05,3.91,3-2.75,1.59,1-2.78,4.6-.92-.55L21.28,57l-3.56,3.17-.86-.53L18,55l-2.36,3.9-.88-.54Z"/><path class="cls-3" d="M23.4,57.05l1.74.62c1.31.47,1.8,1.06,1.47,2a1.11,1.11,0,0,1-1.23.8A1.3,1.3,0,0,1,26,62.09a1.44,1.44,0,0,1-.7.85,2.52,2.52,0,0,1-1.93-.2l-1.75-.62Zm.23,4.88c.75.27,1.1.3,1.32-.34s-.07-.82-.81-1.09l-.71-.25-.51,1.43Zm.78-2.2c.62.22.94.18,1.11-.31s0-.75-.65-1l-.71-.26-.46,1.28Z"/><path class="cls-3" d="M29,58.77l-.55,3.35a1.05,1.05,0,0,0,1,1.37c.8.13,1.21-.21,1.35-1l.54-3.3,1.09.18-.54,3.27c-.23,1.43-1.09,2-2.62,1.75s-2.17-1-1.93-2.49l.53-3.27Z"/><path class="cls-3" d="M33.23,59.34h1.14l0,4.46h2.43v.91l-3.57,0Z"/><path class="cls-3" d="M38.91,59l1.34-.24,2.79,5-1.15.2-.58-1.07-2.1.38L39,64.45l-1.06.19Zm2,3-1.13-2.11-.4,2.39Z"/><path class="cls-3" d="M42.41,58.33l1.55-.6,3.43,3.32-1.54-4,1-.37,1.92,5-1.48.56-3.54-3.41L45.29,63l-1,.37Z"/><path class="cls-3" d="M52.31,59.75c-1.37.84-2.58.46-3.52-1.08s-.71-2.85.64-3.67c1.13-.69,2.12-.55,2.69.28l-.9.55a.94.94,0,0,0-1.34-.18c-.75.46-.8,1.27-.12,2.4s1.41,1.48,2.2,1a1,1,0,0,0,.41-1.32l.93-.57C53.81,58.14,53.47,59,52.31,59.75Z"/><path class="cls-3" d="M51.81,53.53l2.72-2.31.57.68-1.83,1.56.82,1L55.81,53l.57.67-1.72,1.46.94,1.1,1.89-1.61.58.69-2.78,2.36Z"/><path class="cls-2" d="M39.47,54.45l-1.26,2.8c1-.12,1.95-.28,2.9-.48C41.11,56.77,39.5,54.44,39.47,54.45Z"/><path class="cls-2" d="M34.73,54.25a26.57,26.57,0,0,1-4.31-.36L32,57.33c.91.08,1.84.13,2.77.13s1.86-.05,2.78-.13l1.54-3.44A26.79,26.79,0,0,1,34.73,54.25Z"/><path class="cls-2" d="M30,54.45l1.25,2.8c-1-.12-1.94-.28-2.89-.48C28.36,56.77,30,54.44,30,54.45Z"/><path class="cls-2" d="M34.62,67a36.08,36.08,0,0,1-19-5.4l-.11-.06L11,69.48s7.88,5.84,23.74,5.84h0c15.87,0,23.74-5.84,23.74-5.84L54,61.57l-.11.06a36.11,36.11,0,0,1-19,5.4Z"/><path class="cls-3" d="M17.07,69.71l.11-4.07.54.2-.15,3.42,2.22-2.63.52.2L17.6,69.91Z"/><path class="cls-3" d="M21.44,71.17l1-3.71.49.14-1,3.7Z"/><path class="cls-3" d="M26.23,72.32c-1-.18-1.46-.95-1.23-2.21s.94-1.86,2-1.68c.82.15,1.23.63,1.13,1.28l-.53-.09a.77.77,0,0,0-.72-.8c-.63-.11-1.13.36-1.31,1.37s.11,1.58.77,1.7a.74.74,0,0,0,.93-.5l.56.1C27.67,72.14,27.08,72.47,26.23,72.32Z"/><path class="cls-3" d="M31.36,72.89l.22-3.38-1.27-.08,0-.46,3.05.2,0,.46-1.28-.08-.22,3.37Z"/><path class="cls-3" d="M37.11,69.05c1.12,0,1.78.61,1.85,1.9s-.54,2-1.65,2.06-1.79-.62-1.85-1.88S36,69.11,37.11,69.05Zm.17,3.52c.77,0,1.17-.6,1.12-1.61s-.51-1.52-1.27-1.49-1.17.6-1.13,1.6S36.51,72.61,37.28,72.57Z"/><path class="cls-3" d="M41.26,68.73l1.34-.22c.84-.15,1.31.12,1.42.77a.87.87,0,0,1-.54,1,.62.62,0,0,1,.64.48,10.36,10.36,0,0,0,.47,1.29l-.55.1c-.25-.59-.32-1.06-.45-1.29s-.36-.34-.83-.25l-.64.1.29,1.71-.5.09Zm2.23.69c-.08-.49-.38-.51-.9-.42l-.74.13L42,70.26l.75-.13C43.33,70,43.57,69.85,43.49,69.42Z"/><path class="cls-3" d="M47.31,71.41l-1-3.71.5-.13,1,3.71Z"/><path class="cls-3" d="M50.29,70.57l.19-4.18L51,66.2l2.79,3.06-.56.21-.7-.8-1.67.63-.06,1.08Zm.6-3.78,0,2,1.36-.51Z"/><path class="cls-4" d="M94,1h7.41l10.22,29.31h-6.39L103.15,24H91.55l-2.28,6.31h-5.9Zm7.62,18.19-4-12.41L93.14,19.16Z"/><path class="cls-4" d="M114.15,13.75c0-1.26,0-2.56-.17-3.91h5.62l.16,3.06a7,7,0,0,1,6.6-3.54c3.09,0,5.25,1.38,6.22,4,1.35-2.76,3.42-4,6.68-4,4.56,0,6.67,2.56,6.67,7.77V30.28H140V17.94c0-2.89-.85-4.27-3.33-4.27-2.24,0-3.75,1.55-3.75,4V30.28h-5.9V17.94c0-2.89-.86-4.27-3.3-4.27-2.24,0-3.7,1.55-3.7,4V30.28h-5.9Z"/><path class="cls-4" d="M150.54,26.9V1h5.9V12.65a6.92,6.92,0,0,1,6.15-3.17c4.84,0,8.26,4,8.26,10.58s-3.54,10.62-8.34,10.62a7.07,7.07,0,0,1-6.15-3.33l-.2,2.93h-5.82A29,29,0,0,0,150.54,26.9Zm10.13-.17c2.57,0,4.16-2.32,4.16-6.63s-1.59-6.67-4.16-6.67-4.35,2.44-4.35,6.67S158.11,26.73,160.67,26.73Z"/><path class="cls-4" d="M193.4,26.33c0,1.26,0,2.6.17,4H188l-.16-3.06a7,7,0,0,1-6.6,3.54c-4.56,0-6.67-2.56-6.67-7.77V9.84h5.9v12.3c0,2.89.85,4.27,3.34,4.27,2.24,0,3.74-1.51,3.74-4V9.84h5.9Z"/><path class="cls-4" d="M198.06,1H204V30.28h-5.9Z"/><path class="cls-4" d="M220.65,27.51a7.68,7.68,0,0,1-6.47,3.42,6.21,6.21,0,0,1-6.51-6.47c0-4.73,3.74-7.33,11-7.33.45,0,.9,0,1.34,0,0-.28,0-.57,0-.85,0-2.49-.85-3.63-2.85-3.63-1.75,0-2.64.86-2.8,2.89h-5.91c0-4.23,2.94-6.27,8.71-6.27,3,0,5.25.82,6.64,2.16,1.75,1.71,1.83,3.62,1.83,6.35v6.23c0,1.14.12,3.21.33,6.23H220.9C220.82,29.58,220.69,28.65,220.65,27.51Zm-1.3-7c-3.91,0-5.9,1.34-5.9,3.62a2.68,2.68,0,0,0,2.85,2.69c2.36,0,3.74-1.8,3.74-5.21a10.77,10.77,0,0,0,0-1.1Z"/><path class="cls-4" d="M230.33,13.75c0-1.26-.08-2.56-.2-3.91h5.65l.13,3.06a7,7,0,0,1,6.59-3.54c4.56,0,6.67,2.56,6.67,7.77V30.28h-5.86V17.94c0-2.89-.85-4.27-3.33-4.27a3.68,3.68,0,0,0-3.79,4V30.28h-5.86Z"/><path class="cls-4" d="M262,30.76c-5.53,0-9.15-4.07-9.15-11,0-6.51,3.62-10.41,9.56-10.41,4.76,0,7.86,2.8,7.94,7.44h-5.62c-.24-2.56-1.06-3.66-2.77-3.66-2,0-3,2.16-3,6.51,0,4.68.78,6.92,3.1,6.92,1.62,0,2.52-1.34,2.68-4h5.58C270.3,27.75,267.2,30.76,262,30.76Z"/><path class="cls-4" d="M282.27,30.72c-6,0-9.53-3.82-9.53-10.46,0-7,3.62-10.9,9.81-10.9,5.78,0,9.12,3.78,9.12,10.62,0,.45,0,.89,0,1.34H278.44c0,3.66,1.3,5.46,3.78,5.46a3.3,3.3,0,0,0,3.55-2.89H291C290.69,28.16,287.47,30.72,282.27,30.72Zm3.33-13.18c0-2.93-1.18-4.44-3.46-4.44-2,0-3.37,1.59-3.54,4.44Z"/><path class="cls-1" d="M94.65,69.35,84.43,40.05h4.4L97,64.79l8.71-24.74h4.23L99,69.35Z"/><path class="cls-1" d="M113.86,44.2V40.05h4.39V44.2Zm.32,4.72H118V69.35h-3.79Z"/><path class="cls-1" d="M132.08,69.84c-5.82,0-9.07-3.7-9.07-10.26,0-7,3.46-11.15,9.36-11.15,4.56,0,7.53,2.65,7.53,6.84v.08h-3.66a4.13,4.13,0,0,0-4.16-4.27c-3.09,0-5.17,2.72-5.17,7.61,0,5.49,1.75,8.3,5.09,8.3a4.22,4.22,0,0,0,4.4-4.52h3.66C139.73,67.28,136.93,69.84,132.08,69.84Z"/><path class="cls-1" d="M146.48,48.92V44.73l3.74-1.26v5.45h4.56v2.69h-4.56V64.14c0,2,.45,2.61,2.61,2.61a6.89,6.89,0,0,0,1.87-.29v2.85a11.83,11.83,0,0,1-3,.49c-3.66,0-5.25-1.06-5.25-4.31V51.61H143V48.92Z"/><path class="cls-1" d="M167.58,48.47c6.31,0,10.06,3.83,10.06,10.5,0,6.88-3.83,10.87-10.42,10.87-6.11,0-9.81-4-9.81-10.3C157.41,52.71,161.27,48.47,167.58,48.47Zm-6.31,10.87c0,4.84,2.24,7.65,6.23,7.65,3.83,0,6.31-2.85,6.31-8s-2.32-7.85-6.23-7.85S161.27,54.29,161.27,59.34Z"/><path class="cls-1" d="M182.76,52.14c0-.7,0-1.8-.12-3.22h3.78l.08,3.91c.74-2.61,2.69-3.91,5.74-3.91a9.74,9.74,0,0,1,1.55.12v3.54a11,11,0,0,0-2-.24c-3.29,0-5.25,1.91-5.25,5.53V69.35h-3.74Z"/><path class="cls-1" d="M197.74,44.2V40.05h4.4V44.2Zm.33,4.72h3.78V69.35h-3.78Z"/><path class="cls-1" d="M220.4,69.35a17.1,17.1,0,0,1-.41-3.21c-1,2.4-3.3,3.7-6.55,3.7-4.23,0-6.84-2.52-6.84-6.15,0-4.19,3.5-7,9.65-7h3.54V54.17c0-2.2-1.35-3.34-4-3.34-2.52,0-4.07,1.31-4.15,3.5H208V54c0-3.58,2.65-5.58,7.53-5.58,5.82,0,8.06,2,8.06,6.35V67.4a14.2,14.2,0,0,0,.21,1.95Zm-3.79-10.13c-4.11,0-6.14,1.67-6.14,4.11a3.56,3.56,0,0,0,3.86,3.46c3.5,0,5.46-1.92,5.46-5.54v-2Z"/></g></g></svg>